<?xml version="1.0" encoding="UTF-8" ?>
<!DOCTYPE svg PUBLIC "-//W3C//DTD SVG 1.1//EN" "http://www.w3.org/Graphics/SVG/1.1/DTD/svg11.dtd">
<svg width="1530pt" height="548pt" viewBox="0 0 1530 548" version="1.1" xmlns="http://www.w3.org/2000/svg">
<g id="#fe0903ff">
<path fill="#fe0903" opacity="1.00" d=" M 224.26 62.55 C 225.73 62.56 227.22 62.57 228.70 62.57 C 228.61 63.03 228.44 63.96 228.35 64.42 C 229.16 64.49 230.78 64.63 231.59 64.70 C 231.53 65.15 231.41 66.04 231.35 66.48 L 232.75 66.31 L 232.52 67.00 C 233.97 67.78 235.37 68.65 236.74 69.59 L 236.38 70.72 C 236.92 70.64 238.01 70.49 238.55 70.41 C 238.53 70.96 238.49 72.06 238.47 72.60 C 238.98 72.54 240.00 72.41 240.50 72.34 L 240.42 73.77 C 240.96 73.70 242.05 73.55 242.59 73.48 C 242.52 74.00 242.38 75.05 242.31 75.57 L 243.72 75.31 L 243.46 76.67 C 243.99 76.59 245.04 76.42 245.57 76.33 C 245.56 76.80 245.55 77.74 245.54 78.22 C 246.82 78.77 248.09 79.36 249.38 79.92 C 249.37 80.35 249.35 81.21 249.34 81.64 C 249.90 81.62 251.02 81.57 251.58 81.55 C 251.54 82.04 251.44 83.01 251.39 83.50 L 252.74 83.36 L 252.51 84.81 C 253.01 84.65 254.03 84.33 254.54 84.18 L 254.17 85.71 L 255.03 85.35 C 255.42 85.76 256.21 86.57 256.61 86.98 L 256.37 87.74 C 256.92 87.68 258.03 87.56 258.58 87.49 C 258.50 88.02 258.34 89.07 258.26 89.59 L 259.08 89.43 C 259.71 89.80 260.96 90.52 261.59 90.89 C 261.56 91.20 261.52 91.84 261.50 92.15 C 262.13 92.37 263.39 92.82 264.02 93.04 C 264.89 93.95 265.78 94.84 266.66 95.74 L 266.47 96.60 C 267.00 96.54 268.04 96.41 268.56 96.34 C 268.55 96.91 268.52 98.04 268.51 98.61 C 269.02 98.53 270.04 98.38 270.56 98.31 L 270.41 99.04 C 270.78 99.46 271.51 100.30 271.88 100.73 L 272.66 100.33 L 272.46 101.72 C 272.95 101.63 273.93 101.44 274.42 101.35 C 274.46 102.18 274.54 103.83 274.59 104.66 L 273.29 104.31 L 273.71 105.77 L 272.17 105.14 L 272.65 106.19 C 271.29 107.10 269.93 108.02 268.58 108.93 C 268.56 109.34 268.52 110.16 268.50 110.57 C 267.97 110.52 266.92 110.41 266.39 110.36 C 266.42 110.91 266.47 112.00 266.50 112.55 C 265.99 112.51 264.98 112.44 264.48 112.40 L 264.60 113.10 C 264.23 113.50 263.49 114.32 263.12 114.72 L 262.33 114.39 L 262.63 115.79 C 262.09 115.71 261.01 115.55 260.47 115.47 C 260.51 115.99 260.60 117.04 260.65 117.57 L 259.35 117.36 L 259.56 118.70 C 259.03 118.63 257.96 118.47 257.43 118.39 C 257.47 118.93 257.57 119.99 257.61 120.53 L 256.35 120.29 L 256.48 121.58 C 255.96 121.53 254.92 121.42 254.40 121.36 C 254.42 121.92 254.48 123.02 254.51 123.58 C 253.99 123.52 252.96 123.40 252.44 123.35 L 252.61 124.09 C 252.23 124.51 251.49 125.35 251.11 125.77 L 250.20 125.28 L 250.65 126.78 C 250.12 126.69 249.06 126.51 248.52 126.42 C 248.52 126.83 248.52 127.65 248.52 128.05 C 246.81 129.29 245.15 130.59 243.46 131.85 L 243.65 132.84 L 242.27 132.28 L 242.61 133.70 C 242.09 133.63 241.05 133.50 240.53 133.43 C 240.56 133.88 240.62 134.77 240.65 135.22 C 239.59 135.74 238.54 136.25 237.49 136.78 C 237.51 137.22 237.54 138.12 237.56 138.56 C 237.03 138.51 235.96 138.42 235.43 138.37 C 235.41 138.75 235.37 139.53 235.35 139.91 C 234.21 140.75 233.09 141.60 231.97 142.46 L 231.29 142.39 L 231.65 143.82 C 231.12 143.73 230.05 143.55 229.52 143.46 C 229.53 143.97 229.56 144.99 229.57 145.50 L 228.28 145.43 L 228.53 146.82 C 228.11 146.70 227.27 146.48 226.85 146.37 C 226.30 147.43 225.74 148.49 225.19 149.55 C 224.93 149.53 224.41 149.50 224.15 149.48 C 222.99 150.71 221.77 151.89 220.48 153.00 L 220.69 153.72 L 219.19 153.28 L 219.67 154.77 C 219.14 154.68 218.10 154.50 217.57 154.41 C 217.54 154.79 217.47 155.56 217.43 155.94 C 215.91 157.14 214.45 158.40 213.00 159.67 C 212.56 159.96 211.68 160.55 211.25 160.84 L 211.63 161.72 C 211.10 161.64 210.06 161.49 209.53 161.41 C 209.55 161.97 209.59 163.08 209.60 163.64 C 209.15 163.60 208.26 163.53 207.81 163.50 C 207.27 164.52 206.73 165.55 206.19 166.58 C 205.78 166.52 204.95 166.42 204.54 166.37 L 204.59 167.68 L 203.38 167.49 C 203.42 168.01 203.50 169.06 203.53 169.59 C 202.99 169.50 201.91 169.31 201.37 169.22 L 201.76 170.61 L 200.96 170.34 C 200.57 170.75 199.79 171.57 199.40 171.98 L 199.66 172.08 C 199.25 172.47 198.44 173.25 198.04 173.64 L 197.95 173.34 C 197.54 173.73 196.74 174.52 196.33 174.92 L 196.58 175.03 C 196.21 175.44 195.46 176.27 195.09 176.68 L 194.30 176.41 L 194.62 177.85 C 194.09 177.73 193.04 177.51 192.51 177.39 C 192.49 177.95 192.46 179.06 192.44 179.61 C 191.94 179.54 190.95 179.38 190.45 179.31 L 190.63 180.51 C 188.20 180.50 185.76 180.50 183.33 180.49 L 183.53 179.20 C 183.01 179.35 181.96 179.65 181.44 179.80 L 181.58 178.11 C 181.06 178.28 180.03 178.61 179.51 178.78 L 179.61 177.56 C 178.16 177.54 176.72 177.51 175.28 177.49 L 175.78 176.19 L 174.13 176.83 L 174.74 175.45 C 173.93 175.46 172.30 175.49 171.49 175.50 L 171.55 174.58 C 170.14 174.51 168.74 174.44 167.34 174.38 C 167.44 173.98 167.65 173.19 167.75 172.79 C 165.28 172.33 162.84 171.67 160.37 171.19 C 160.45 170.79 160.61 169.98 160.69 169.57 C 159.26 169.54 157.83 169.51 156.41 169.49 L 156.50 168.55 C 155.71 168.53 154.13 168.50 153.34 168.49 C 153.42 168.02 153.56 167.08 153.63 166.61 C 152.80 166.58 151.13 166.50 150.30 166.47 C 150.37 166.00 150.51 165.07 150.58 164.61 L 149.37 164.70 L 149.49 163.42 C 148.96 163.44 147.88 163.47 147.34 163.49 C 147.43 162.99 147.61 161.98 147.70 161.48 L 146.31 161.57 L 146.56 160.12 C 146.11 160.25 145.19 160.50 144.74 160.62 C 144.65 159.99 144.47 158.71 144.38 158.08 C 143.26 156.97 141.94 156.12 140.48 155.55 L 139.98 155.01 C 139.80 154.61 139.43 153.80 139.24 153.40 L 139.78 152.13 L 138.24 152.50 C 138.40 152.00 138.72 151.01 138.88 150.51 L 137.45 150.53 L 137.56 149.10 C 137.10 149.21 136.20 149.43 135.75 149.54 C 135.67 148.16 135.59 146.79 135.52 145.41 C 134.85 145.31 133.51 145.12 132.83 145.02 C 133.52 144.91 134.89 144.69 135.58 144.58 C 135.58 143.77 135.57 142.14 135.57 141.32 C 136.04 141.40 136.98 141.55 137.45 141.63 L 137.27 140.30 L 138.65 140.54 C 138.58 140.00 138.45 138.94 138.38 138.41 C 138.91 138.45 139.97 138.55 140.50 138.59 L 140.39 137.29 L 141.71 137.56 C 141.63 137.04 141.48 135.99 141.40 135.46 C 141.94 135.53 143.03 135.65 143.57 135.71 L 143.44 134.40 L 144.85 134.54 C 144.74 134.08 144.51 133.17 144.40 132.72 C 145.19 132.64 146.76 132.49 147.54 132.42 C 147.51 131.90 147.43 130.86 147.39 130.34 C 147.92 130.40 148.96 130.52 149.48 130.58 L 149.26 129.31 L 150.63 129.54 C 150.59 129.00 150.51 127.92 150.46 127.38 C 151.00 127.47 152.06 127.65 152.59 127.74 L 152.36 126.92 C 152.74 126.50 153.51 125.65 153.89 125.23 L 154.83 125.78 L 154.39 124.23 C 154.91 124.33 155.96 124.52 156.48 124.61 C 156.48 124.07 156.49 122.99 156.49 122.45 C 156.99 122.48 157.99 122.55 158.49 122.59 C 158.50 122.08 158.53 121.08 158.54 120.57 C 159.10 120.58 160.21 120.59 160.77 120.59 C 160.69 120.11 160.53 119.14 160.45 118.66 C 161.24 118.58 162.82 118.43 163.61 118.35 C 163.55 117.98 163.45 117.24 163.39 116.87 C 164.77 115.96 166.13 115.01 167.51 114.10 C 167.50 113.71 167.47 112.93 167.45 112.54 C 167.99 112.57 169.06 112.63 169.60 112.65 C 169.60 112.09 169.61 110.96 169.61 110.40 C 170.09 110.48 171.06 110.65 171.54 110.73 L 171.44 109.39 L 172.89 109.60 C 172.78 109.12 172.57 108.16 172.47 107.68 C 173.26 107.61 174.83 107.46 175.62 107.39 C 175.57 107.02 175.49 106.27 175.44 105.90 C 176.28 105.34 177.12 104.79 177.96 104.23 C 179.12 103.14 180.30 102.07 181.53 101.06 L 181.29 100.24 L 182.17 100.80 C 182.57 100.39 183.36 99.55 183.75 99.13 L 183.40 98.31 C 183.94 98.39 185.03 98.55 185.57 98.63 C 185.55 98.17 185.51 97.26 185.49 96.80 C 186.56 96.32 187.63 95.84 188.70 95.35 L 188.24 94.35 L 189.70 94.59 C 189.65 94.11 189.53 93.14 189.48 92.66 C 190.06 92.65 191.23 92.62 191.82 92.61 C 191.76 92.13 191.64 91.17 191.58 90.70 C 192.25 90.62 193.58 90.47 194.25 90.40 C 194.79 89.38 195.32 88.36 195.86 87.35 C 196.27 87.46 197.10 87.67 197.51 87.78 L 197.32 86.35 L 198.65 86.53 C 198.58 86.03 198.46 85.04 198.40 84.54 C 198.95 84.57 200.05 84.63 200.60 84.66 C 200.62 84.11 200.65 83.00 200.67 82.45 C 201.13 82.51 202.06 82.64 202.52 82.70 L 202.48 81.37 L 203.93 81.58 C 203.82 81.11 203.61 80.16 203.50 79.69 C 204.27 79.61 205.80 79.46 206.57 79.39 C 206.56 79.06 206.55 78.40 206.54 78.07 C 208.55 76.44 210.49 74.72 212.51 73.11 L 212.30 72.23 L 213.15 72.78 C 213.55 72.36 214.35 71.52 214.76 71.10 L 214.38 70.26 C 214.91 70.35 215.99 70.52 216.53 70.61 C 216.51 70.06 216.48 68.98 216.46 68.44 C 216.97 68.46 217.98 68.50 218.48 68.52 C 218.49 68.03 218.50 67.05 218.51 66.56 C 219.05 66.56 220.13 66.56 220.67 66.55 C 220.61 66.08 220.50 65.13 220.44 64.65 C 221.26 64.63 222.89 64.59 223.71 64.58 L 223.31 63.27 L 224.91 63.85 L 224.26 62.55 Z" />
<path fill="#fe0903" opacity="1.00" d=" M 159.41 108.96 L 158.34 107.52 C 159.45 107.61 161.65 107.79 162.76 107.89 L 163.13 106.57 C 163.41 107.97 163.14 109.37 162.98 110.77 L 162.90 109.22 C 161.69 109.29 159.26 109.42 158.05 109.48 C 158.23 110.02 158.59 111.09 158.77 111.62 L 157.32 111.26 L 157.26 113.83 C 156.85 112.78 156.03 110.67 155.62 109.62 C 155.49 111.82 155.36 114.03 155.23 116.23 C 154.44 116.23 152.85 116.24 152.06 116.25 L 152.78 117.70 L 151.13 117.06 L 151.59 118.70 C 151.11 118.55 150.17 118.25 149.70 118.09 C 149.56 119.92 148.82 121.55 147.24 122.57 C 147.16 123.20 146.98 124.46 146.89 125.10 C 146.71 123.07 146.36 119.01 146.19 116.98 L 144.61 121.97 C 144.49 123.08 144.24 125.28 144.12 126.39 C 143.37 126.35 141.86 126.28 141.11 126.25 L 141.73 127.75 L 140.32 127.10 C 140.31 127.87 140.31 129.42 140.30 130.20 C 139.75 130.20 138.64 130.21 138.09 130.21 C 138.15 130.71 138.26 131.71 138.31 132.22 C 137.50 132.24 135.88 132.28 135.07 132.31 C 135.16 132.84 135.34 133.91 135.43 134.45 C 134.89 134.35 133.81 134.17 133.27 134.08 C 133.26 134.62 133.23 135.69 133.22 136.22 C 132.43 136.22 130.87 136.23 130.08 136.24 L 130.73 137.78 C 130.19 137.20 129.11 136.04 128.56 135.46 L 128.37 138.73 L 126.62 137.93 L 127.54 139.59 L 125.77 139.43 L 126.71 140.74 C 126.08 140.60 124.81 140.32 124.18 140.18 C 124.30 140.79 124.53 142.02 124.65 142.64 L 123.06 142.13 L 123.67 143.69 C 123.05 143.56 121.80 143.30 121.18 143.18 C 121.30 143.80 121.56 145.06 121.69 145.68 L 120.71 144.93 L 120.19 146.15 L 119.01 146.61 L 119.60 147.58 L 118.34 147.19 C 118.26 147.99 118.10 149.61 118.02 150.42 C 117.74 148.57 117.19 144.87 116.92 143.02 C 116.72 145.32 116.31 149.90 116.10 152.19 C 114.82 152.23 113.54 152.28 112.26 152.32 C 112.27 153.04 112.29 154.47 112.30 155.18 C 111.49 155.20 109.86 155.24 109.05 155.26 C 109.12 155.74 109.25 156.70 109.31 157.18 C 107.35 157.26 105.39 157.32 103.44 157.50 C 103.34 158.18 103.14 159.55 103.04 160.23 C 101.73 160.23 100.41 160.23 99.10 160.24 L 99.33 161.37 C 98.81 161.28 97.76 161.10 97.23 161.01 C 97.21 161.53 97.17 162.56 97.15 163.08 C 96.65 163.12 95.65 163.20 95.15 163.24 C 94.33 161.91 92.70 159.25 91.88 157.91 L 90.40 162.81 L 91.15 164.61 L 88.05 164.25 C 88.52 164.75 89.47 165.75 89.95 166.25 C 87.96 166.24 85.98 166.27 84.00 166.29 L 84.61 167.61 C 84.03 167.47 82.86 167.20 82.28 167.07 C 82.30 167.61 82.35 168.68 82.37 169.22 C 80.92 169.24 79.47 169.27 78.03 169.30 C 78.12 169.79 78.30 170.76 78.39 171.24 C 76.36 171.29 74.33 171.36 72.30 171.38 C 72.30 172.45 72.30 174.57 72.30 175.64 C 74.26 175.68 76.23 175.77 78.20 175.84 C 78.23 176.57 78.28 178.02 78.31 178.75 C 79.95 178.66 81.59 178.56 83.23 178.47 C 83.39 180.25 83.71 183.80 83.87 185.57 L 84.85 180.50 C 87.38 180.73 90.59 180.65 89.77 184.62 C 90.51 184.00 91.99 182.77 92.74 182.15 C 93.00 182.49 93.54 183.17 93.81 183.51 C 94.54 183.48 96.00 183.42 96.73 183.39 C 96.92 183.60 97.30 184.03 97.49 184.25 C 97.51 184.84 97.56 186.03 97.59 186.63 C 99.48 186.75 101.37 186.78 103.26 186.83 C 103.23 187.34 103.18 188.37 103.15 188.88 C 103.69 188.82 104.78 188.70 105.33 188.64 L 105.64 193.04 C 106.27 192.22 107.53 190.58 108.16 189.76 C 108.45 189.77 109.03 189.79 109.32 189.80 C 109.26 190.29 109.14 191.27 109.07 191.77 C 110.70 191.76 112.34 191.77 113.98 191.77 C 113.52 192.27 112.59 193.25 112.13 193.75 L 115.35 193.53 C 115.42 195.34 115.56 198.98 115.63 200.79 C 116.52 199.29 118.30 196.30 119.19 194.80 C 119.70 194.83 120.71 194.89 121.22 194.92 C 121.19 195.38 121.12 196.32 121.09 196.78 C 123.18 196.69 125.27 196.79 127.35 196.82 L 121.30 199.11 L 127.76 199.79 L 126.69 200.63 C 129.21 200.67 131.74 200.75 134.26 200.83 C 134.24 201.53 134.20 202.93 134.17 203.63 C 136.21 203.67 138.25 203.73 140.29 203.79 C 140.27 204.49 140.24 205.90 140.23 206.60 C 142.54 206.64 144.86 206.71 147.17 206.83 C 147.21 207.56 147.28 209.02 147.32 209.74 C 149.02 209.67 150.73 209.59 152.44 209.52 C 152.35 210.05 152.17 211.13 152.08 211.66 C 154.08 211.72 156.08 211.79 158.08 211.86 C 158.31 214.18 158.76 218.82 158.99 221.14 L 159.70 214.56 C 162.43 216.76 166.38 215.28 169.60 215.65 C 169.70 215.14 169.89 214.14 169.98 213.63 L 171.11 218.79 C 171.31 217.06 171.72 213.59 171.92 211.85 C 173.59 211.81 175.25 211.76 176.92 211.73 C 176.86 211.12 176.75 209.88 176.70 209.27 C 177.29 210.94 178.47 214.29 179.07 215.96 L 179.99 210.17 C 180.24 209.69 180.76 208.74 181.02 208.26 L 181.55 208.35 C 182.49 207.35 183.48 206.37 184.71 205.74 C 184.86 205.61 185.14 205.34 185.28 205.21 L 188.32 210.85 C 188.43 209.07 188.64 205.52 188.75 203.75 C 192.03 201.90 195.82 202.30 199.42 202.62 L 197.04 200.72 C 198.10 200.71 199.16 200.70 200.22 200.68 L 201.02 206.99 L 201.81 199.73 L 205.13 199.49 C 204.58 199.05 203.48 198.19 202.93 197.75 C 204.56 197.76 206.19 197.75 207.83 197.75 C 207.90 197.50 208.02 197.01 208.09 196.76 C 208.66 196.24 209.79 195.19 210.36 194.67 C 210.45 196.94 210.62 201.49 210.71 203.77 C 211.22 201.45 212.24 196.81 212.75 194.49 C 213.26 194.60 214.27 194.84 214.78 194.96 L 214.77 192.76 C 215.55 192.78 217.10 192.81 217.88 192.83 L 217.69 191.76 C 219.06 191.77 220.43 191.78 221.81 191.80 L 221.64 189.84 C 222.03 191.12 222.81 193.68 223.21 194.96 L 223.80 189.07 C 224.68 190.12 226.43 192.23 227.31 193.29 C 227.48 191.12 227.65 188.96 227.82 186.80 C 229.51 186.77 231.19 186.74 232.89 186.73 L 232.61 185.82 L 237.30 185.28 C 236.42 184.90 234.65 184.15 233.77 183.77 C 235.46 183.77 237.14 183.74 238.84 183.73 C 238.90 183.43 239.04 182.83 239.11 182.53 C 239.43 181.98 240.06 180.87 240.38 180.32 L 241.01 180.19 C 241.50 180.28 242.49 180.48 242.99 180.58 L 244.14 181.16 L 244.94 179.76 C 245.42 179.79 246.37 179.84 246.85 179.87 C 246.83 179.38 246.79 178.40 246.78 177.90 C 248.38 177.63 250.76 178.44 251.68 176.69 C 251.96 176.50 252.51 176.12 252.79 175.93 C 253.01 175.71 253.44 175.26 253.66 175.04 L 254.59 174.69 L 255.67 174.80 L 257.35 175.19 L 257.56 169.78 L 254.63 164.34 C 254.57 166.29 254.45 170.20 254.39 172.16 C 253.78 171.70 252.56 170.79 251.95 170.33 C 251.94 170.07 251.91 169.55 251.90 169.29 C 250.19 169.24 248.48 169.18 246.78 169.14 C 246.72 167.95 246.61 165.57 246.56 164.38 C 245.67 164.41 243.89 164.48 243.00 164.52 L 243.75 166.26 C 242.55 166.24 241.35 166.23 240.15 166.24 C 240.60 165.75 241.48 164.78 241.93 164.29 L 238.61 164.34 L 238.88 163.25 C 237.14 163.25 235.42 163.23 233.69 163.22 C 233.72 162.51 233.79 161.10 233.82 160.39 C 231.49 160.37 229.15 160.31 226.82 160.17 C 226.81 158.69 226.79 157.22 226.78 155.74 C 227.50 155.76 228.93 155.79 229.64 155.80 C 229.75 154.75 229.97 152.63 230.08 151.58 C 230.26 153.88 230.61 158.49 230.79 160.80 L 232.40 155.80 C 232.51 154.51 232.72 151.93 232.83 150.63 C 233.59 150.67 235.10 150.74 235.85 150.78 L 235.37 149.34 C 235.98 149.47 237.21 149.71 237.83 149.83 C 237.70 149.21 237.46 147.97 237.33 147.34 L 238.76 148.24 L 238.29 145.95 L 239.80 148.91 C 239.76 147.84 239.67 145.70 239.62 144.63 C 240.43 144.66 242.06 144.71 242.87 144.74 L 242.29 143.28 L 243.57 143.96 C 243.68 142.90 243.89 140.78 244.00 139.72 C 244.25 141.71 244.75 145.70 245.00 147.69 L 245.75 141.54 C 246.91 141.60 248.08 141.65 249.25 141.71 L 249.74 145.97 C 250.19 144.89 251.08 142.71 251.52 141.63 C 251.42 142.38 251.22 143.87 251.12 144.62 C 252.44 144.64 253.77 144.66 255.10 144.69 C 255.64 144.73 256.73 144.81 257.28 144.85 C 257.22 145.32 257.11 146.25 257.05 146.72 C 258.77 146.76 260.50 146.82 262.23 146.86 C 262.24 147.60 262.27 149.09 262.28 149.83 C 263.10 149.75 264.74 149.58 265.55 149.50 C 265.44 149.80 265.20 150.41 265.08 150.72 C 265.96 150.69 267.72 150.63 268.60 150.60 C 268.46 151.10 268.17 152.10 268.02 152.59 C 270.39 152.66 272.76 152.75 275.13 152.84 C 274.78 156.54 275.86 159.72 278.39 162.39 C 278.43 160.67 278.51 157.22 278.55 155.50 C 279.76 155.66 280.98 155.82 282.20 155.98 C 282.21 156.66 282.22 158.03 282.23 158.71 C 283.59 158.66 284.96 158.62 286.33 158.57 C 286.42 160.51 286.61 164.38 286.70 166.32 L 288.62 162.24 L 288.29 159.59 C 289.37 160.72 290.92 160.82 292.35 161.16 C 292.30 161.55 292.19 162.32 292.13 162.71 C 292.97 162.71 294.66 162.70 295.50 162.70 C 295.39 163.19 295.18 164.17 295.07 164.66 C 296.00 164.62 297.86 164.54 298.79 164.50 L 298.01 165.63 L 300.53 165.88 C 299.32 166.18 296.90 166.80 295.69 167.10 C 296.84 167.27 299.15 167.60 300.30 167.77 C 300.14 229.65 300.27 291.52 300.22 353.40 C 299.71 353.37 298.67 353.31 298.16 353.29 C 298.26 353.80 298.47 354.82 298.58 355.33 C 297.08 355.30 295.59 355.27 294.10 355.25 L 294.42 357.00 C 293.48 355.97 291.61 353.90 290.67 352.87 C 289.91 354.79 291.89 359.51 288.00 358.49 C 288.08 358.93 288.24 359.81 288.32 360.25 C 287.52 360.23 285.93 360.19 285.13 360.17 L 285.25 360.95 C 284.58 361.17 283.22 361.62 282.55 361.85 C 282.54 362.30 282.54 363.21 282.54 363.66 L 282.05 363.86 C 280.92 363.12 278.64 361.65 277.51 360.91 C 277.48 361.79 277.44 363.56 277.41 364.44 C 276.85 364.35 275.71 364.18 275.15 364.09 C 275.18 364.60 275.24 365.61 275.27 366.11 C 274.12 366.20 272.98 366.30 271.84 366.41 C 271.32 364.85 270.27 361.72 269.75 360.16 C 269.61 362.41 269.32 366.91 269.17 369.16 C 266.87 369.23 264.56 369.31 262.26 369.33 C 262.26 370.08 262.26 371.59 262.26 372.34 C 260.20 371.70 258.06 371.47 255.93 371.27 L 256.86 374.00 L 253.57 369.89 L 253.36 374.66 L 255.90 374.98 C 253.71 375.18 251.51 375.28 249.33 375.40 L 250.73 376.37 C 249.37 376.41 246.63 376.47 245.27 376.51 L 249.89 377.91 C 247.97 377.65 246.06 377.41 244.15 377.20 C 244.24 377.76 244.43 378.88 244.52 379.44 C 243.99 379.38 242.94 379.25 242.41 379.19 L 241.80 381.91 C 241.68 379.81 241.42 375.63 241.29 373.54 C 238.86 376.12 237.84 379.18 238.23 382.74 C 237.47 382.46 235.93 381.92 235.17 381.64 L 235.65 383.39 C 233.54 383.38 231.43 383.37 229.34 383.34 C 229.62 384.28 230.19 386.18 230.47 387.12 C 229.76 385.52 228.34 382.30 227.63 380.70 L 227.32 387.28 C 226.77 387.25 225.66 387.19 225.11 387.16 C 225.15 387.66 225.22 388.65 225.26 389.14 C 223.53 389.18 221.79 389.22 220.06 389.27 C 220.11 389.75 220.20 390.70 220.25 391.18 C 218.20 391.26 216.15 391.33 214.10 391.38 L 214.54 392.58 C 213.95 392.46 212.78 392.22 212.20 392.10 C 212.25 392.65 212.36 393.75 212.41 394.30 C 210.29 394.33 208.18 394.37 206.06 394.40 C 206.20 394.93 206.47 396.00 206.60 396.54 C 206.06 396.43 204.99 396.21 204.45 396.10 C 204.29 396.87 203.97 398.43 203.81 399.20 C 203.69 397.07 203.43 392.80 203.30 390.66 C 200.84 393.13 199.83 396.11 200.24 399.61 C 199.48 399.46 197.95 399.17 197.18 399.02 L 197.63 400.39 C 195.86 400.36 194.08 400.34 192.31 400.31 C 192.33 401.04 192.35 402.51 192.36 403.24 C 190.64 403.26 188.93 403.27 187.21 403.29 C 187.22 404.01 187.22 405.44 187.23 406.15 C 185.64 406.17 184.06 406.18 182.48 406.16 C 181.60 406.71 180.71 407.25 179.82 407.77 C 179.56 406.83 179.06 404.95 178.81 404.00 L 178.38 408.46 C 176.73 408.47 173.43 408.51 171.78 408.52 L 175.78 410.39 C 173.94 410.39 172.10 410.40 170.27 410.43 C 170.81 412.48 171.39 415.02 168.33 414.77 C 168.79 413.60 169.23 412.41 169.70 411.25 L 166.96 411.52 L 167.89 413.44 C 165.97 413.47 164.05 413.50 162.13 413.55 L 163.16 412.05 L 161.32 412.95 L 162.09 411.24 L 160.06 411.65 L 160.91 410.35 C 159.36 410.42 157.82 410.50 156.27 410.58 C 156.41 409.97 156.68 408.76 156.81 408.16 C 156.16 408.32 154.86 408.66 154.21 408.83 L 154.91 407.42 C 153.02 407.45 151.13 407.48 149.25 407.51 C 149.42 406.98 149.76 405.90 149.93 405.36 C 148.37 405.42 146.81 405.48 145.25 405.56 L 145.77 404.10 C 145.15 404.27 143.90 404.59 143.28 404.75 C 143.42 404.16 143.71 402.98 143.85 402.39 C 141.95 402.44 140.06 402.48 138.17 402.53 L 139.02 401.01 L 137.11 401.87 L 138.00 400.03 L 136.10 400.90 L 136.93 399.38 C 135.04 399.43 133.16 399.48 131.29 399.53 C 131.41 398.93 131.67 397.74 131.80 397.14 C 131.16 397.31 129.88 397.66 129.25 397.83 L 129.89 396.40 C 128.04 396.44 126.19 396.48 124.34 396.52 C 124.46 395.92 124.69 394.73 124.80 394.13 C 124.17 394.30 122.90 394.64 122.27 394.81 L 122.86 393.38 C 121.31 393.44 119.76 393.50 118.21 393.56 C 118.39 393.01 118.74 391.91 118.92 391.36 C 117.34 391.42 115.77 391.48 114.19 391.56 L 114.99 390.06 L 113.40 390.86 L 113.56 386.35 C 113.05 387.47 112.03 389.73 111.52 390.85 L 111.70 388.31 C 110.20 388.40 108.69 388.49 107.19 388.59 L 108.26 387.28 L 106.34 387.73 L 106.67 385.93 L 105.19 386.82 L 105.95 383.06 C 104.90 385.54 102.36 385.32 100.29 385.81 L 101.05 384.00 L 99.54 384.99 L 99.69 383.32 L 97.99 383.49 L 98.95 382.37 C 97.08 382.43 95.21 382.47 93.34 382.53 C 93.45 381.93 93.67 380.73 93.78 380.13 C 93.15 380.30 91.87 380.64 91.23 380.81 L 91.91 379.39 C 90.34 379.44 88.77 379.49 87.21 379.54 C 87.39 379.00 87.74 377.92 87.92 377.37 C 86.35 377.41 84.78 377.46 83.21 377.52 L 83.79 376.02 C 83.21 376.23 82.06 376.65 81.49 376.86 C 81.51 375.52 81.54 372.85 81.56 371.51 C 81.41 374.95 78.33 374.23 76.24 374.77 L 77.32 373.42 L 75.41 373.61 L 75.58 371.85 L 74.04 372.91 L 74.90 371.34 C 73.13 371.41 71.36 371.47 69.59 371.56 C 69.52 370.21 69.38 367.51 69.31 366.16 C 68.90 367.35 68.06 369.74 67.64 370.93 L 67.67 368.42 C 65.63 368.44 63.58 368.42 61.53 368.38 C 62.54 367.91 64.55 366.98 65.56 366.51 L 61.14 366.54 L 61.93 365.38 C 60.05 365.44 58.18 365.49 56.30 365.55 C 56.43 364.95 56.68 363.74 56.80 363.14 C 56.16 363.31 54.88 363.65 54.24 363.82 L 54.88 362.38 C 53.31 362.44 51.75 362.51 50.18 362.57 C 50.36 362.02 50.73 360.92 50.92 360.37 C 49.34 360.43 47.76 360.49 46.18 360.56 L 46.89 359.30 C 45.97 359.37 44.14 359.50 43.22 359.57 C 43.40 359.02 43.74 357.92 43.92 357.37 C 42.35 357.42 40.79 357.48 39.23 357.55 L 39.79 356.09 C 39.16 356.26 37.90 356.61 37.28 356.79 C 37.42 356.20 37.70 355.03 37.84 354.44 C 35.45 354.46 33.07 354.42 30.68 354.38 C 30.62 291.93 30.70 229.48 30.63 167.04 L 34.51 170.05 C 33.51 168.01 32.44 166.02 31.28 164.08 C 32.69 164.36 34.12 164.63 35.54 164.88 L 36.15 161.66 C 36.27 163.43 36.53 166.97 36.66 168.73 L 43.37 163.90 L 36.77 161.80 C 37.82 161.77 39.92 161.70 40.97 161.66 L 40.42 160.61 C 41.27 160.65 42.98 160.74 43.83 160.79 C 43.76 160.25 43.63 159.19 43.56 158.65 C 45.26 158.67 46.96 158.67 48.67 158.70 C 48.73 157.87 48.87 156.21 48.94 155.38 L 50.00 161.17 C 50.26 159.50 50.78 156.16 51.04 154.49 C 51.15 155.27 51.37 156.82 51.48 157.59 L 54.54 157.59 C 54.61 156.40 54.76 154.03 54.84 152.85 C 56.86 152.80 58.88 152.74 60.90 152.72 L 60.57 151.63 L 64.51 151.74 C 63.73 151.37 62.17 150.64 61.39 150.27 C 62.70 150.40 65.33 150.67 66.64 150.81 C 66.69 150.07 66.78 148.58 66.83 147.84 C 68.52 147.76 70.21 147.68 71.90 147.62 L 71.71 145.89 C 72.69 145.84 74.67 145.75 75.66 145.71 C 75.37 145.41 74.80 144.82 74.52 144.52 C 76.24 144.61 77.97 144.68 79.70 144.75 C 79.73 144.02 79.79 142.56 79.81 141.84 C 82.13 141.74 84.44 141.66 86.76 141.62 C 86.75 140.76 86.75 139.04 86.75 138.18 C 87.38 139.88 88.65 143.28 89.29 144.98 L 89.64 138.53 C 90.42 138.60 91.97 138.73 92.75 138.79 C 92.76 138.07 92.79 136.64 92.81 135.92 C 94.34 135.82 95.87 135.72 97.40 135.60 L 97.71 141.28 C 99.29 138.73 100.02 135.92 99.88 132.85 C 101.57 132.81 103.25 132.76 104.94 132.72 C 104.89 132.24 104.80 131.29 104.75 130.81 C 106.47 130.76 108.20 130.69 109.93 130.65 L 109.51 129.46 C 110.02 129.60 111.05 129.88 111.56 130.02 L 112.05 127.47 C 112.29 129.40 112.77 133.25 113.01 135.17 C 113.28 132.82 113.82 128.10 114.09 125.74 C 114.25 128.03 114.57 132.61 114.73 134.89 C 117.03 131.87 118.08 128.45 117.89 124.65 C 119.65 125.52 121.45 126.30 123.26 127.11 C 123.65 126.10 124.44 124.07 124.83 123.05 C 124.79 122.75 124.72 122.14 124.68 121.83 C 127.11 121.75 129.55 121.65 131.98 121.59 C 131.83 121.08 131.53 120.07 131.38 119.57 C 132.25 119.61 133.99 119.70 134.86 119.75 L 134.25 118.23 C 135.46 119.08 137.88 120.78 139.09 121.63 L 136.40 117.61 L 139.72 117.66 C 139.31 117.18 138.48 116.23 138.07 115.76 C 139.62 115.79 141.18 115.82 142.73 115.85 C 139.93 111.22 150.42 110.71 148.20 116.78 L 149.04 110.76 C 149.24 112.52 149.65 116.03 149.85 117.79 C 150.83 115.09 151.60 112.45 152.19 109.88 C 154.15 109.53 156.18 109.65 157.77 111.08 L 157.39 108.29 L 159.41 108.96 M 54.37 192.29 C 54.35 232.88 54.33 273.47 54.35 314.06 C 54.34 319.11 56.01 323.97 56.19 329.01 C 56.28 333.25 56.17 337.48 56.26 341.72 C 57.93 341.72 59.60 341.73 61.27 341.75 C 61.28 342.71 61.29 343.66 61.29 344.63 C 63.60 344.66 65.92 344.71 68.23 344.77 C 68.25 345.73 68.28 346.69 68.30 347.66 C 70.27 347.65 72.23 347.67 74.19 347.69 C 74.26 348.66 74.33 349.63 74.40 350.61 C 76.43 350.62 78.46 350.64 80.49 350.67 C 80.40 351.11 80.21 351.98 80.12 352.41 C 80.85 352.73 82.32 353.37 83.05 353.69 C 83.86 353.65 85.47 353.58 86.27 353.54 C 86.29 354.01 86.33 354.96 86.36 355.43 C 87.56 355.81 88.77 356.20 89.98 356.59 C 91.13 356.60 92.29 356.62 93.44 356.64 C 93.39 357.08 93.29 357.95 93.24 358.38 C 94.64 358.87 96.05 359.37 97.45 359.88 C 100.32 361.50 103.65 362.27 106.25 364.38 C 107.95 364.52 109.66 364.64 111.37 364.76 C 111.38 365.46 111.39 366.87 111.40 367.58 C 112.97 367.60 114.55 367.65 116.12 367.71 C 118.17 369.57 120.57 370.96 123.16 371.93 C 123.48 372.34 124.13 373.17 124.45 373.58 C 126.77 373.58 129.10 373.61 131.42 373.64 C 131.37 374.04 131.27 374.83 131.22 375.23 C 135.34 376.15 138.16 380.06 142.60 379.78 C 142.50 380.23 142.30 381.14 142.20 381.59 C 146.02 381.62 149.83 381.72 153.65 381.77 C 153.56 333.38 153.57 284.98 153.65 236.59 C 150.96 234.73 147.98 233.25 144.67 233.05 C 144.67 232.61 144.68 231.73 144.68 231.29 C 142.41 231.25 140.15 231.21 137.88 231.16 C 137.80 230.20 137.71 229.23 137.64 228.28 C 135.75 228.24 133.87 228.22 131.99 228.18 C 131.58 226.80 131.15 225.44 130.69 224.09 C 128.71 224.46 126.75 224.91 124.80 225.42 C 124.79 224.64 124.76 223.10 124.75 222.32 C 124.05 222.30 122.64 222.27 121.94 222.25 C 120.70 219.64 118.08 219.17 115.43 219.16 C 114.62 218.30 113.82 217.43 113.01 216.58 C 110.83 216.54 108.63 216.27 107.08 214.58 C 105.34 212.84 101.98 214.13 101.03 211.41 C 99.73 211.37 98.44 211.34 97.15 211.32 C 96.63 210.41 96.11 209.51 95.59 208.61 C 93.43 208.13 91.27 207.61 89.14 207.02 C 87.83 205.88 86.17 205.38 84.52 204.98 C 83.69 204.13 82.88 203.27 82.08 202.41 C 80.26 202.38 78.45 202.34 76.64 202.31 C 76.62 201.57 76.58 200.08 76.56 199.34 C 74.78 199.38 73.00 199.42 71.22 199.46 C 71.02 198.93 70.63 197.86 70.44 197.33 C 68.22 197.30 66.00 197.25 63.78 197.21 C 63.75 196.39 63.72 195.57 63.69 194.75 C 62.21 194.01 60.73 193.26 59.27 192.49 C 57.63 192.43 56.00 192.36 54.37 192.29 M 265.26 194.41 C 265.33 194.88 265.48 195.81 265.55 196.27 C 262.80 196.12 260.23 196.85 258.48 199.08 C 256.91 199.48 254.99 199.17 253.84 200.51 C 251.31 202.95 247.34 202.56 244.71 204.94 C 242.20 205.25 240.04 206.47 238.24 208.20 C 237.13 208.31 236.03 208.41 234.94 208.52 C 234.29 211.43 231.57 211.51 229.10 211.57 C 229.20 212.02 229.41 212.92 229.52 213.37 C 227.22 213.39 224.93 213.41 222.64 213.41 C 221.92 214.41 221.21 215.41 220.49 216.41 C 219.10 216.46 217.72 216.52 216.34 216.60 C 215.14 217.52 213.83 218.28 212.46 218.93 L 212.51 219.66 C 211.71 219.55 210.10 219.32 209.30 219.21 C 209.37 219.72 209.51 220.75 209.58 221.26 C 207.45 221.51 205.33 221.80 203.23 222.22 C 203.32 222.75 203.50 223.81 203.59 224.34 C 200.57 224.33 197.18 224.09 195.76 227.36 C 194.34 227.38 192.92 227.39 191.50 227.40 C 190.71 228.42 189.92 229.44 189.14 230.46 C 187.63 230.43 186.12 230.40 184.62 230.36 C 183.89 231.40 183.17 232.45 182.44 233.50 C 180.75 233.44 179.07 233.39 177.38 233.33 C 177.37 283.19 177.38 333.05 177.38 382.91 C 181.37 382.46 186.18 382.62 188.83 379.01 C 192.42 378.53 195.50 376.56 198.78 375.18 C 198.72 374.85 198.60 374.18 198.55 373.85 C 200.92 373.58 203.28 373.22 205.61 372.70 C 205.86 372.18 206.37 371.14 206.63 370.61 C 207.15 370.61 208.19 370.61 208.71 370.60 C 209.50 370.31 211.08 369.73 211.86 369.44 C 211.77 368.99 211.57 368.08 211.48 367.63 C 213.43 367.62 215.39 367.61 217.35 367.62 C 217.97 366.61 218.60 365.61 219.23 364.61 C 221.39 364.60 223.55 364.59 225.72 364.61 C 225.64 364.15 225.48 363.23 225.40 362.77 C 226.99 362.49 228.59 362.22 230.18 361.88 C 230.55 361.82 231.29 361.70 231.66 361.64 C 231.61 361.10 231.51 360.01 231.46 359.47 C 233.14 359.53 234.82 359.57 236.51 359.64 C 237.22 358.58 237.92 357.53 238.63 356.48 C 240.21 356.53 241.78 356.58 243.37 356.65 C 243.94 355.61 244.52 354.58 245.10 353.55 C 246.35 353.53 247.59 353.51 248.84 353.48 C 249.95 352.50 251.21 351.72 252.54 351.07 L 252.51 350.41 C 253.90 350.52 255.30 350.62 256.70 350.73 C 256.63 350.16 256.50 349.02 256.43 348.45 C 257.22 348.52 258.79 348.65 259.57 348.71 L 259.58 347.44 C 260.95 347.53 262.33 347.62 263.70 347.71 C 263.63 347.14 263.47 346.00 263.39 345.43 C 265.18 345.51 266.97 345.57 268.77 345.66 C 269.13 344.60 269.49 343.55 269.83 342.49 C 270.99 342.54 272.14 342.59 273.30 342.64 C 274.07 341.88 274.83 341.11 275.61 340.35 C 275.54 291.64 275.52 242.93 275.61 194.22 C 272.16 194.25 268.71 194.35 265.26 194.41 Z" />
<path fill="#fe0903" opacity="1.00" d=" M 567.00 120.20 C 581.00 120.20 595.00 120.20 609.00 120.20 C 609.00 183.80 609.00 247.40 609.00 311.00 C 595.00 311.00 581.00 311.00 567.00 311.00 C 567.00 247.40 567.00 183.80 567.00 120.20 Z" />
<path fill="#fe0903" opacity="1.00" d=" M 637.29 120.17 C 651.29 120.23 665.30 120.19 679.31 120.19 C 679.29 158.56 679.44 196.94 679.28 235.31 C 693.59 221.55 707.84 207.73 722.09 193.92 C 723.06 192.86 724.65 193.32 725.93 193.16 C 744.07 193.12 762.22 192.94 780.36 193.00 C 760.51 211.14 740.74 229.37 720.89 247.51 C 741.86 268.62 762.80 289.76 783.63 311.00 C 764.10 311.00 744.57 311.00 725.04 311.00 C 709.79 295.07 694.42 279.25 679.31 263.20 C 679.28 279.13 679.27 295.07 679.28 311.00 C 665.29 311.00 651.31 311.00 637.33 311.00 C 637.30 247.39 637.38 183.78 637.29 120.17 Z" />
<path fill="#fe0903" opacity="1.00" d=" M 1050.51 120.19 C 1064.49 120.20 1078.46 120.22 1092.43 120.18 C 1092.34 183.79 1092.42 247.39 1092.39 311.00 C 1078.45 311.00 1064.51 311.00 1050.57 311.00 C 1050.49 306.70 1050.38 302.39 1050.52 298.09 C 1045.14 304.95 1037.83 310.27 1029.39 312.65 C 1016.38 316.37 1001.98 315.19 989.76 309.34 C 972.68 301.25 959.44 284.93 956.22 266.17 C 953.39 250.54 954.93 233.64 962.73 219.60 C 971.09 205.34 985.25 194.26 1001.54 190.81 C 1013.22 188.46 1025.75 189.37 1036.61 194.45 C 1041.94 196.73 1046.24 200.73 1050.53 204.52 C 1050.47 176.41 1050.68 148.30 1050.51 120.19 M 1017.35 226.48 C 1006.36 229.63 998.18 240.63 998.34 252.07 C 998.19 260.02 1002.05 267.79 1008.06 272.91 C 1018.53 281.90 1036.25 280.70 1045.13 270.01 C 1054.79 259.56 1053.82 241.28 1042.87 232.09 C 1036.10 225.89 1026.09 223.92 1017.35 226.48 Z" />
<path fill="#fe0903" opacity="1.00" d=" M 512.23 125.28 C 523.14 122.54 535.44 128.80 539.34 139.40 C 542.83 148.44 540.42 159.63 532.81 165.84 C 523.93 173.60 508.78 173.07 500.87 164.16 C 495.29 158.73 493.23 150.31 494.86 142.79 C 496.64 134.29 503.72 127.09 512.23 125.28 Z" />
<path fill="#fe0903" opacity="1.00" d=" M 1300.59 192.37 C 1320.89 186.16 1342.92 189.16 1362.52 196.50 C 1357.90 205.60 1352.94 214.52 1348.44 223.67 C 1340.98 219.69 1332.56 217.12 1324.05 217.56 C 1321.05 217.77 1317.81 218.39 1315.57 220.54 C 1313.40 223.11 1312.72 227.28 1315.01 230.00 C 1317.55 232.75 1321.40 233.54 1324.89 234.43 C 1332.90 236.30 1341.16 237.74 1348.49 241.66 C 1356.64 245.57 1362.63 253.40 1364.69 262.15 C 1367.39 273.67 1365.21 286.53 1357.92 295.99 C 1353.86 300.91 1349.03 305.27 1343.34 308.21 C 1331.67 314.42 1318.07 315.80 1305.04 315.25 C 1290.02 314.59 1275.60 309.34 1262.65 301.93 C 1267.67 292.06 1272.73 282.21 1277.71 272.31 C 1287.37 278.57 1298.25 283.78 1309.98 284.06 C 1314.10 284.08 1318.79 283.87 1321.95 280.85 C 1325.57 276.92 1324.22 269.89 1319.24 267.76 C 1308.09 262.84 1295.00 263.32 1284.59 256.50 C 1278.67 252.98 1274.39 246.92 1272.90 240.21 C 1271.00 231.85 1271.48 222.82 1275.01 214.95 C 1279.64 204.09 1289.43 195.92 1300.59 192.37 Z" />
<path fill="#fe0903" opacity="1.00" d=" M 377.18 206.21 C 384.96 195.55 398.05 189.95 411.02 189.60 C 439.50 187.87 466.82 210.13 471.47 238.16 C 474.61 255.70 472.33 275.05 461.70 289.78 C 452.71 301.84 439.54 311.31 424.50 313.80 C 407.68 317.16 389.09 312.32 377.15 299.72 C 377.24 323.15 377.15 346.57 377.18 370.00 C 363.20 370.00 349.21 370.00 335.23 370.00 C 335.22 311.01 335.25 252.03 335.21 193.04 C 349.20 193.07 363.20 193.04 377.20 193.05 C 377.24 197.44 377.27 201.82 377.18 206.21 M 394.38 226.55 C 389.46 227.96 385.24 231.17 381.95 235.02 C 373.37 244.96 373.98 261.42 383.32 270.68 C 392.67 281.24 410.86 281.77 420.80 271.76 C 428.95 264.39 431.59 251.89 427.39 241.78 C 425.62 237.24 422.29 233.50 418.54 230.47 C 411.75 225.35 402.44 224.15 394.38 226.55 Z" />
<path fill="#fe0903" opacity="1.00" d=" M 795.13 235.96 C 800.10 211.56 822.18 191.78 847.04 189.76 C 857.72 188.84 868.74 190.75 878.23 195.86 C 882.24 198.11 885.51 201.40 889.00 204.36 C 889.00 200.59 888.99 196.82 889.01 193.05 C 903.01 193.06 917.00 193.05 931.00 193.05 C 931.00 232.37 931.00 271.68 931.00 311.00 C 917.00 311.00 903.01 311.01 889.02 310.99 C 888.99 306.78 889.00 302.57 889.00 298.35 C 884.92 302.86 880.52 307.27 874.96 309.93 C 864.45 315.07 852.19 315.80 840.82 313.57 C 824.38 310.08 809.85 299.04 801.45 284.57 C 793.12 269.98 791.81 252.19 795.13 235.96 M 857.23 226.20 C 845.63 228.81 836.66 240.14 836.88 252.04 C 836.74 259.40 840.05 266.66 845.46 271.61 C 854.87 280.85 871.39 280.97 881.22 272.31 C 887.54 266.92 890.96 258.41 890.23 250.14 C 889.82 239.82 882.39 230.44 872.73 227.06 C 867.79 225.25 862.35 225.18 857.23 226.20 Z" />
<path fill="#fe0903" opacity="1.00" d=" M 1135.00 206.07 C 1145.17 196.39 1159.06 191.42 1172.90 190.36 C 1186.65 189.23 1201.05 190.31 1213.62 196.43 C 1224.26 201.46 1232.94 210.27 1238.27 220.72 C 1244.70 232.71 1246.24 246.59 1246.14 260.00 C 1216.97 260.01 1187.81 259.99 1158.65 260.01 C 1158.81 267.00 1159.98 274.63 1165.15 279.79 C 1171.33 285.84 1180.82 287.17 1189.06 285.88 C 1195.48 284.92 1200.64 280.42 1204.19 275.21 C 1217.64 275.16 1231.09 275.10 1244.55 275.04 C 1241.94 282.91 1238.47 290.67 1232.95 296.94 C 1225.56 305.29 1215.28 310.69 1204.57 313.41 C 1192.91 316.21 1180.72 316.12 1168.90 314.51 C 1153.95 312.19 1139.17 305.27 1129.76 293.11 C 1119.90 281.57 1115.89 266.00 1116.37 251.04 C 1116.58 234.46 1122.71 217.52 1135.00 206.07 M 1175.92 217.15 C 1167.23 219.30 1160.83 227.19 1159.81 235.99 C 1175.58 236.00 1191.35 236.02 1207.13 235.97 C 1205.62 230.50 1203.46 224.83 1198.91 221.16 C 1192.63 215.83 1183.61 215.39 1175.92 217.15 Z" />
<path fill="#fe0903" opacity="1.00" d=" M 496.57 193.07 C 510.56 193.08 524.56 193.08 538.56 193.07 C 538.51 232.38 538.54 271.69 538.54 310.99 C 524.55 311.01 510.57 311.00 496.58 311.00 C 496.57 271.69 496.60 232.38 496.57 193.07 Z" />
</g>
<g id="#909090ff">
<path fill="#909090" opacity="1.00" d=" M 54.37 192.29 C 56.00 192.36 57.63 192.43 59.27 192.49 C 60.73 193.26 62.21 194.01 63.69 194.75 C 63.72 195.57 63.75 196.39 63.78 197.21 C 66.00 197.25 68.22 197.30 70.44 197.33 C 70.63 197.86 71.02 198.93 71.22 199.46 C 73.00 199.42 74.78 199.38 76.56 199.34 C 76.58 200.08 76.62 201.57 76.64 202.31 C 78.45 202.34 80.26 202.38 82.08 202.41 C 82.88 203.27 83.69 204.13 84.52 204.98 C 86.17 205.38 87.83 205.88 89.14 207.02 C 91.27 207.61 93.43 208.13 95.59 208.61 C 96.11 209.51 96.63 210.41 97.15 211.32 C 98.44 211.34 99.73 211.37 101.03 211.41 C 101.98 214.13 105.34 212.84 107.08 214.58 C 108.63 216.27 110.83 216.54 113.01 216.58 C 113.82 217.43 114.62 218.30 115.43 219.16 C 118.08 219.17 120.70 219.64 121.94 222.25 C 122.64 222.27 124.05 222.30 124.75 222.32 C 124.76 223.10 124.79 224.64 124.80 225.42 C 126.75 224.91 128.71 224.46 130.69 224.09 C 131.15 225.44 131.58 226.80 131.99 228.18 C 133.87 228.22 135.75 228.24 137.64 228.28 C 137.71 229.23 137.80 230.20 137.88 231.16 C 140.15 231.21 142.41 231.25 144.68 231.29 C 144.68 231.73 144.67 232.61 144.67 233.05 C 147.98 233.25 150.96 234.73 153.65 236.59 C 153.57 284.98 153.56 333.38 153.65 381.77 C 149.83 381.72 146.02 381.62 142.20 381.59 C 142.30 381.14 142.50 380.23 142.60 379.78 C 138.16 380.06 135.34 376.15 131.22 375.23 C 131.27 374.83 131.37 374.04 131.42 373.64 C 129.10 373.61 126.77 373.58 124.45 373.58 C 124.13 373.17 123.48 372.34 123.16 371.93 C 120.57 370.96 118.17 369.57 116.12 367.71 C 114.55 367.65 112.97 367.60 111.40 367.58 C 111.39 366.87 111.38 365.46 111.37 364.76 C 109.66 364.64 107.95 364.52 106.25 364.38 C 103.65 362.27 100.32 361.50 97.45 359.88 C 96.05 359.37 94.64 358.87 93.24 358.38 C 93.29 357.95 93.39 357.08 93.44 356.64 C 92.29 356.62 91.13 356.60 89.98 356.59 C 88.77 356.20 87.56 355.81 86.36 355.43 C 86.33 354.96 86.29 354.01 86.27 353.54 C 85.47 353.58 83.86 353.65 83.05 353.69 C 82.32 353.37 80.85 352.73 80.12 352.41 C 80.21 351.98 80.40 351.11 80.49 350.67 C 78.46 350.64 76.43 350.62 74.40 350.61 C 74.33 349.63 74.26 348.66 74.19 347.69 C 72.23 347.67 70.27 347.65 68.30 347.66 C 68.28 346.69 68.25 345.73 68.23 344.77 C 65.92 344.71 63.60 344.66 61.29 344.63 C 61.29 343.66 61.28 342.71 61.27 341.75 C 59.60 341.73 57.93 341.72 56.26 341.72 C 56.17 337.48 56.28 333.25 56.19 329.01 C 56.01 323.97 54.34 319.11 54.35 314.06 C 54.33 273.47 54.35 232.88 54.37 192.29 Z" />
<path fill="#909090" opacity="1.00" d=" M 265.26 194.41 C 268.71 194.35 272.16 194.25 275.61 194.22 C 275.52 242.93 275.54 291.64 275.61 340.35 C 274.83 341.11 274.07 341.88 273.30 342.64 C 272.14 342.59 270.99 342.54 269.83 342.49 C 269.49 343.55 269.13 344.60 268.77 345.66 C 266.97 345.57 265.18 345.51 263.39 345.43 C 263.47 346.00 263.63 347.14 263.70 347.71 C 262.33 347.62 260.95 347.53 259.58 347.44 L 259.57 348.71 C 258.79 348.65 257.22 348.52 256.43 348.45 C 256.50 349.02 256.63 350.16 256.70 350.73 C 255.30 350.62 253.90 350.52 252.51 350.41 L 252.54 351.07 C 251.21 351.72 249.95 352.50 248.84 353.48 C 247.59 353.51 246.35 353.53 245.10 353.55 C 244.52 354.58 243.94 355.61 243.37 356.65 C 241.78 356.58 240.21 356.53 238.63 356.48 C 237.92 357.53 237.22 358.58 236.51 359.64 C 234.82 359.57 233.14 359.53 231.46 359.47 C 231.51 360.01 231.61 361.10 231.66 361.64 C 231.29 361.70 230.55 361.82 230.18 361.88 C 228.59 362.22 226.99 362.49 225.40 362.77 C 225.48 363.23 225.64 364.15 225.72 364.61 C 223.55 364.59 221.39 364.60 219.23 364.61 C 218.60 365.61 217.97 366.61 217.35 367.62 C 215.39 367.61 213.43 367.62 211.48 367.63 C 211.57 368.08 211.77 368.99 211.86 369.44 C 211.08 369.73 209.50 370.31 208.71 370.60 C 208.19 370.61 207.15 370.61 206.63 370.61 C 206.37 371.14 205.86 372.18 205.61 372.70 C 203.28 373.22 200.92 373.58 198.55 373.85 C 198.60 374.18 198.72 374.85 198.78 375.18 C 195.50 376.56 192.42 378.53 188.83 379.01 C 186.18 382.62 181.37 382.46 177.38 382.91 C 177.38 333.05 177.37 283.19 177.38 233.33 C 179.07 233.39 180.75 233.44 182.44 233.50 C 183.17 232.45 183.89 231.40 184.62 230.36 C 186.12 230.40 187.63 230.43 189.14 230.46 C 189.92 229.44 190.71 228.42 191.50 227.40 C 192.92 227.39 194.34 227.38 195.76 227.36 C 197.18 224.09 200.57 224.33 203.59 224.34 C 203.50 223.81 203.32 222.75 203.23 222.22 C 205.33 221.80 207.45 221.51 209.58 221.26 C 209.51 220.75 209.37 219.72 209.30 219.21 C 210.10 219.32 211.71 219.55 212.51 219.66 L 212.46 218.93 C 213.83 218.28 215.14 217.52 216.34 216.60 C 217.72 216.52 219.10 216.46 220.49 216.41 C 221.21 215.41 221.92 214.41 222.64 213.41 C 224.93 213.41 227.22 213.39 229.52 213.37 C 229.41 212.92 229.20 212.02 229.10 211.57 C 231.57 211.51 234.29 211.43 234.94 208.52 C 236.03 208.41 237.13 208.31 238.24 208.20 C 240.04 206.47 242.20 205.25 244.71 204.94 C 247.34 202.56 251.31 202.95 253.84 200.51 C 254.99 199.17 256.91 199.48 258.48 199.08 C 260.23 196.85 262.80 196.12 265.55 196.27 C 265.48 195.81 265.33 194.88 265.26 194.41 Z" />
</g>
</svg>
